<svg viewBox="0 0 65 84" fill="none" xmlns="http://www.w3.org/2000/svg">
  <path
    d="M0.23532 43.4588C3.28327 50.736 6.33123 58.0133 9.37918 65.2857L13.8565 75.9748L14.4292 77.3405C14.8077 78.2477 15.1663 79.4902 15.6594 80.2445C16.7899 81.9849 18.3936 83.2028 20.4405 83.7254C21.9445 84.1099 23.6876 84.1099 25.1618 83.6021C26.7456 83.0598 27.7715 82.4829 29.0016 81.3391C29.6242 80.7622 30.187 79.9585 30.6551 79.3225C31.198 78.583 31.5615 77.7448 31.9599 76.9263C38.788 62.8993 45.611 48.8723 52.439 34.8453C56.2838 26.9468 60.1286 19.0483 63.9734 11.1449C64.5213 10.2968 64.8151 9.37979 64.8599 8.39371C65.084 7.41256 65.0392 6.42648 64.7255 5.44533C64.2473 3.72955 62.9076 1.87079 61.294 1.02769C59.5609 0.120492 57.4592 -0.333105 55.5368 0.283195C53.7688 0.850192 51.9061 1.96446 51.0744 3.68024C46.7266 12.6141 42.3788 21.548 38.0359 30.4819C33.6931 39.4158 29.3403 48.3497 24.9975 57.2836C23.7922 59.7587 22.592 62.2288 21.3867 64.7039C20.7742 65.9611 20.1666 67.2134 19.554 68.4707C19.0012 69.6047 18.528 70.8472 17.766 71.8628L18.9364 70.364C18.7472 70.5957 18.5529 70.8028 18.3238 70.9901L19.8379 69.8315C19.7034 69.9301 19.5739 70.009 19.4245 70.0829L21.2074 69.3385C21.058 69.3976 20.9285 69.4371 20.7642 69.4617L22.7513 69.1955C22.6468 69.2053 22.5471 69.2053 22.4426 69.1955L24.4297 69.4617C24.3201 69.4469 24.2156 69.4173 24.1159 69.3779L29.3353 74.545C25.5254 65.4484 21.7154 56.3518 17.9055 47.2601L14.6683 39.5292C14.4392 38.5678 13.991 37.7296 13.3336 37.0147C12.8056 36.2111 12.1084 35.575 11.2368 35.1116C9.63318 34.1847 7.27749 33.7902 5.47959 34.3671C3.6817 34.9439 1.92863 36.0533 1.01723 37.7641L0.265202 39.5292C-0.0884007 40.8407 -0.0884007 42.1522 0.265202 43.4637L0.23532 43.4588Z"
    fill="#2AAF27" fill-opacity="0.8" />
</svg>