<svg viewBox="0 0 90 100" fill="none" xmlns="http://www.w3.org/2000/svg">
  <g opacity="0.8">
    <path
      d="M28.0463 73.5842C33.589 65.8778 39.0118 58.0834 44.304 50.1988C49.5962 42.3141 54.7604 34.3486 59.7966 26.3023C62.6432 21.7482 65.448 17.1703 68.2109 12.5686C69.1596 10.9885 69.3903 8.79366 68.9076 7.0311C68.4249 5.26854 67.107 3.45753 65.4865 2.62139C63.866 1.78525 61.7963 1.33416 59.9482 1.93106C58.1 2.52796 56.5619 3.64967 55.5358 5.35181C50.6502 13.4879 45.6333 21.5491 40.4823 29.5261C35.3314 37.5031 30.0571 45.3979 24.6569 53.2013C21.6008 57.6162 18.5062 62.0014 15.3699 66.3627C14.8598 67.1878 14.5787 68.0761 14.5361 69.025C14.3251 69.9849 14.3699 70.9401 14.6732 71.9002C15.1457 73.6253 16.4738 75.4738 18.0943 76.3099C19.7148 77.146 21.7811 77.6031 23.6339 77.0049L25.4359 76.2393C26.536 75.5802 27.4068 74.6916 28.0451 73.5795L28.0463 73.5842Z"
      fill="#F13030" />
    <path
      d="M16.0853 40.4062C22.0087 46.368 28.051 52.2116 34.2129 57.9216C40.3749 63.6316 46.7134 69.2681 53.1438 74.7433C56.7534 77.8164 60.3975 80.8497 64.0807 83.8421C64.7463 84.5417 65.531 85.0323 66.4316 85.3198C67.2824 85.757 68.1939 85.9559 69.1675 85.921C70.9783 85.924 73.1623 85.099 74.3952 83.7283C75.6281 82.3576 76.5586 80.5456 76.4762 78.6431C76.3938 76.7407 75.7832 74.6402 74.2839 73.4181C67.7607 68.1195 61.3512 62.6839 55.052 57.1173C48.7529 51.5507 42.5158 45.8058 36.4309 39.9538C33.01 36.6677 29.6343 33.3442 26.2919 29.9762C25.0117 28.6891 23.0099 27.8969 21.2051 27.8974C19.4003 27.8978 17.2103 28.7194 15.9774 30.0901C14.7445 31.4608 13.814 33.2728 13.8964 35.1753C13.9788 37.0777 14.6745 38.9734 16.0887 40.4002L16.0853 40.4062Z"
      fill="#F13030" />
  </g>
</svg>