<svg viewBox="0 0 309 49" fill="none" xmlns="http://www.w3.org/2000/svg">
  <g clip-path="url(#clip0_10_758)">
    <path
      d="M8.21161 46.3376L5.55863 49H2.58981L0 46.3376V43.4217L1.89499 41.4567L0 39.555V36.6391L1.89499 34.674L0 32.7723V29.8564L2.58981 27.194H5.55863L8.21161 29.8564V32.7723L6.25345 34.674L8.21161 36.6391V39.555L6.25345 41.4567L8.21161 43.4217V46.3376ZM35.3099 25.9897L32.6569 28.5886H29.6881L27.7931 26.6869L25.8981 28.5886H22.8662L20.9712 26.6869L19.0762 28.5886H16.1074L14.2124 26.7503L12.3174 28.5886H9.3486L6.75878 25.9897V23.0103L8.65377 21.1087L6.75878 19.1436V16.2277L8.65377 14.2626L6.75878 12.3609V9.44502L9.3486 6.78266H12.3174L14.9704 9.44502V12.3609L13.0122 14.2626L14.9704 16.2277V19.1436L13.0122 21.1087L14.2124 22.2497L16.1074 20.4114H19.0762L20.9712 22.3131L22.8662 20.4114H25.8981L27.7931 22.3131L28.9933 21.1087L27.0983 19.1436V16.2277L28.9933 14.2626L27.0983 12.3609V9.44502L29.6881 6.78266H32.6569L35.3099 9.44502V12.3609L33.3517 14.2626L35.3099 16.2277V19.1436L33.3517 21.1087L35.3099 23.0103V25.9897ZM28.488 5.57827L25.8981 8.24062H22.8662L20.9712 6.27555L19.0762 8.24062H16.1074L13.5176 5.57827V2.66235L16.1074 0H19.0762L20.9712 1.96507L22.8662 0H25.8981L28.488 2.66235V5.57827ZM42.0687 46.3376L39.4157 49H36.4469L33.8571 46.3376V43.4217L35.7521 41.4567L33.8571 39.555V36.6391L35.7521 34.674L33.8571 32.7723V29.8564L36.4469 27.194H39.4157L42.0687 29.8564V32.7723L40.1105 34.674L42.0687 36.6391V39.555L40.1105 41.4567L42.0687 43.4217V46.3376Z"
      fill="white" />
    <path
      d="M66.6403 39.555L63.9873 42.2173H61.0185L58.4287 39.555V36.6391L60.3237 34.674L58.4287 32.7723V29.8564L60.3237 27.8913L58.4287 25.9897V23.0103L60.3237 21.1087L59.1235 19.9043L57.2285 21.806H54.2597L52.3647 19.9043L50.4698 21.806H47.5009L44.9111 19.1436V16.2277L47.5009 13.5653H50.4698L52.3647 15.467L54.2597 13.5653H57.2285L59.1235 15.467L61.0185 13.5653H63.9873L66.6403 16.2277V19.1436L64.6822 21.1087L66.6403 23.0103V25.9897L64.6822 27.8913L66.6403 29.8564V32.7723L64.6822 34.674L66.6403 36.6391V39.555ZM66.6403 5.57827L63.9873 8.24062H61.0185L58.4287 5.57827V2.66235L61.0185 0H63.9873L66.6403 2.66235V5.57827ZM73.3991 46.3376L70.8093 49H67.7773L65.2506 46.3376V43.4217L67.7773 40.7594H70.8093L73.3991 43.4217V46.3376Z"
      fill="white" />
    <path
      d="M129.364 46.3376L126.711 49H123.743L121.848 47.0349L119.953 49H116.921L115.026 47.0349L113.131 49H110.162L108.267 47.0983L106.372 49H103.403L101.508 47.0983L99.6131 49H96.6443L94.0544 46.3376V43.4217L96.6443 40.7594H99.6131L101.508 42.6611L102.708 41.4567L100.813 39.555V36.6391L102.708 34.674L100.813 32.7723V29.8564L102.708 27.8913L100.813 25.9897V23.0103L102.708 21.1087L100.813 19.1436V16.2277L102.708 14.2626L100.813 12.3609V9.44502L102.708 7.47995L101.508 6.33894L99.6131 8.24062H96.6443L94.0544 5.57827V2.66235L96.6443 0H99.6131L101.508 1.90168L103.403 0H106.372L108.267 1.90168L110.162 0H113.131L115.026 1.96507L116.921 0H119.953L121.848 1.96507L123.743 0H126.711L129.364 2.66235V5.57827L126.711 8.24062H123.743L121.848 6.27555L119.953 8.24062H116.921L115.026 6.27555L113.131 8.24062H110.162L108.267 6.33894L107.067 7.47995L109.025 9.44502V12.3609L107.067 14.2626L109.025 16.2277V19.1436L107.067 21.1087L108.267 22.2497L110.162 20.4114H113.131L115.026 22.3131L116.921 20.4114H119.953L121.848 22.3131L123.743 20.4114H126.711L129.364 23.0103V25.9897L126.711 28.5886H123.743L121.848 26.6869L119.953 28.5886H116.921L115.026 26.6869L113.131 28.5886H110.162L108.267 26.7503L107.067 27.8913L109.025 29.8564V32.7723L107.067 34.674L109.025 36.6391V39.555L107.067 41.4567L108.267 42.6611L110.162 40.7594H113.131L115.026 42.7245L116.921 40.7594H119.953L121.848 42.7245L123.743 40.7594H126.711L129.364 43.4217V46.3376ZM136.123 19.1436L133.47 21.806H130.501L127.912 19.1436V16.2277L129.807 14.2626L127.912 12.3609V9.44502L130.501 6.78266H133.47L136.123 9.44502V12.3609L134.165 14.2626L136.123 16.2277V19.1436ZM136.123 39.555L133.47 42.2173H130.501L127.912 39.555V36.6391L129.807 34.674L127.912 32.7723V29.8564L130.501 27.194H133.47L136.123 29.8564V32.7723L134.165 34.674L136.123 36.6391V39.555Z"
      fill="white" />
    <path
      d="M174.275 46.3376L171.623 49H168.654L166.759 47.0349L164.864 49H161.832L159.937 47.0349L158.042 49H155.073L153.178 47.0983L151.283 49H148.314L146.419 47.0983L144.524 49H141.555L138.966 46.3376V43.4217L141.555 40.7594H144.524L146.419 42.6611L148.314 40.7594H151.283L153.178 42.6611L154.378 41.4567L152.483 39.555V36.6391L154.378 34.674L152.483 32.7723V29.8564L154.378 27.8913L152.483 25.9897V23.0103L154.378 21.1087L152.483 19.1436V16.2277L154.378 14.2626L152.483 12.3609V9.44502L154.378 7.47995L153.178 6.33894L151.283 8.24062H148.314L146.419 6.33894L144.524 8.24062H141.555L138.966 5.57827V2.66235L141.555 0H144.524L146.419 1.90168L148.314 0H151.283L153.178 1.90168L155.073 0H158.042L159.937 1.96507L161.832 0H164.864L166.759 1.96507L168.654 0H171.623L174.275 2.66235V5.57827L171.623 8.24062H168.654L166.759 6.27555L164.864 8.24062H161.832L159.937 6.27555L158.737 7.47995L160.695 9.44502V12.3609L158.737 14.2626L160.695 16.2277V19.1436L158.737 21.1087L160.695 23.0103V25.9897L158.737 27.8913L160.695 29.8564V32.7723L158.737 34.674L160.695 36.6391V39.555L158.737 41.4567L159.937 42.7245L161.832 40.7594H164.864L166.759 42.7245L168.654 40.7594H171.623L174.275 43.4217V46.3376Z"
      fill="white" />
    <path
      d="M192.088 12.3609L189.435 15.0233H186.467L184.572 13.1216L183.371 14.2626L185.33 16.2277V19.1436L183.371 21.1087L185.33 23.0103V25.9897L183.371 27.8913L185.33 29.8564V32.7723L183.371 34.674L185.33 36.6391V39.555L183.371 41.4567L185.33 43.4217V46.3376L182.677 49H179.708L177.118 46.3376V43.4217L179.013 41.4567L177.118 39.555V36.6391L179.013 34.674L177.118 32.7723V29.8564L179.013 27.8913L177.118 25.9897V23.0103L179.013 21.1087L177.118 19.1436V16.2277L179.013 14.2626L177.118 12.3609V9.44502L179.013 7.47995L177.118 5.57827V2.66235L179.708 0H182.677L185.33 2.66235V5.57827L183.371 7.47995L184.572 8.68435L186.467 6.78266H189.435L192.088 9.44502V12.3609ZM198.847 19.1436L196.194 21.806H193.225L190.635 19.1436V16.2277L193.225 13.5653H196.194L198.847 16.2277V19.1436ZM205.606 25.9897L203.016 28.5886H199.984L197.457 25.9897V23.0103L199.984 20.4114H203.016L205.606 23.0103V25.9897ZM219.187 46.3376L216.534 49H213.565L210.975 46.3376V43.4217L212.87 41.4567L210.975 39.555V36.6391L212.87 34.674L211.67 33.533L209.775 35.4347H206.806L204.216 32.7723V29.8564L206.806 27.194H209.775L211.67 29.0957L212.87 27.8913L210.975 25.9897V23.0103L212.87 21.1087L210.975 19.1436V16.2277L212.87 14.2626L210.975 12.3609V9.44502L212.87 7.47995L210.975 5.57827V2.66235L213.565 0H216.534L219.187 2.66235V5.57827L217.228 7.47995L219.187 9.44502V12.3609L217.228 14.2626L219.187 16.2277V19.1436L217.228 21.1087L219.187 23.0103V25.9897L217.228 27.8913L219.187 29.8564V32.7723L217.228 34.674L219.187 36.6391V39.555L217.228 41.4567L219.187 43.4217V46.3376Z"
      fill="white" />
    <path
      d="M230.178 39.555L227.525 42.2173H224.619L221.966 39.555V36.6391L223.861 34.674L221.966 32.7723V29.8564L223.924 27.8913L221.966 25.9897V23.0103L223.924 21.1087L221.966 19.1436V16.2277L223.861 14.2626L221.966 12.3609V9.44502L224.619 6.78266H227.525L230.178 9.44502V12.3609L228.283 14.2626L230.178 16.2277V19.1436L228.22 21.1087L230.178 23.0103V25.9897L228.22 27.8913L230.178 29.8564V32.7723L228.283 34.674L230.178 36.6391V39.555ZM257.276 5.57827L254.623 8.24062H251.717L249.759 6.27555L247.864 8.24062H244.895L243 6.27555L241.042 8.24062H238.137L236.242 6.33894L234.283 8.24062H231.378L228.725 5.57827V2.66235L231.378 0H234.283L236.242 1.90168L238.137 0H241.042L243 1.96507L244.895 0H247.864L249.759 1.96507L251.717 0H254.623L257.276 2.66235V5.57827ZM264.098 46.3376L261.445 49H258.539L256.581 47.0349L254.623 49H251.717L249.759 47.0349L247.864 49H244.895L243 47.0349L241.042 49H238.137L236.242 47.0983L234.283 49H231.378L228.725 46.3376V43.4217L231.378 40.7594H234.283L236.242 42.6611L238.137 40.7594H241.042L243 42.7245L244.895 40.7594H247.864L249.759 42.7245L251.717 40.7594H254.623L256.581 42.7245L257.781 41.5201L255.823 39.555V36.6391L257.718 34.674L255.823 32.7723V29.8564L257.781 27.8913L256.518 26.7503L254.623 28.5886H251.717L249.759 26.6869L247.864 28.5886H244.895L242.306 25.9897V23.0103L244.895 20.4114H247.864L249.759 22.3131L251.717 20.4114H254.623L256.581 22.2497L258.476 20.4114H261.382L264.035 23.0103V25.9897L262.077 27.8913L264.035 29.8564V32.7723L262.14 34.674L264.035 36.6391V39.555L262.14 41.4567L264.098 43.4217V46.3376ZM264.035 12.3609L261.382 15.0233H258.476L255.823 12.3609V9.44502L258.476 6.78266H261.382L264.035 9.44502V12.3609Z"
      fill="white" />
    <path
      d="M275.152 39.555L272.499 42.2173H269.53L266.94 39.555V36.6391L268.835 34.674L266.94 32.7723V29.8564L268.835 27.8913L266.94 25.9897V23.0103L268.835 21.1087L266.94 19.1436V16.2277L268.835 14.2626L266.94 12.3609V9.44502L269.53 6.78266H272.499L275.152 9.44502V12.3609L273.194 14.2626L275.152 16.2277V19.1436L273.194 21.1087L275.152 23.0103V25.9897L273.194 27.8913L275.152 29.8564V32.7723L273.194 34.674L275.152 36.6391V39.555ZM302.25 5.57827L299.597 8.24062H296.629L294.734 6.27555L292.839 8.24062H289.807L287.912 6.27555L286.017 8.24062H283.048L281.153 6.33894L279.258 8.24062H276.289L273.699 5.57827V2.66235L276.289 0H279.258L281.153 1.90168L283.048 0H286.017L287.912 1.96507L289.807 0H292.839L294.734 1.96507L296.629 0H299.597L302.25 2.66235V5.57827ZM302.25 46.3376L299.597 49H296.629L294.734 47.0349L292.839 49H289.807L287.912 47.0349L286.017 49H283.048L281.153 47.0983L279.258 49H276.289L273.699 46.3376V43.4217L276.289 40.7594H279.258L281.153 42.6611L283.048 40.7594H286.017L287.912 42.7245L289.807 40.7594H292.839L294.734 42.7245L296.629 40.7594H299.597L302.25 43.4217V46.3376ZM309.009 39.555L306.356 42.2173H303.387L300.798 39.555V36.6391L302.692 34.674L300.798 32.7723V29.8564L302.692 27.8913L300.798 25.9897V23.0103L302.692 21.1087L300.798 19.1436V16.2277L302.692 14.2626L300.798 12.3609V9.44502L303.387 6.78266H306.356L309.009 9.44502V12.3609L307.051 14.2626L309.009 16.2277V19.1436L307.051 21.1087L309.009 23.0103V25.9897L307.051 27.8913L309.009 29.8564V32.7723L307.051 34.674L309.009 36.6391V39.555Z"
      fill="white" />
  </g>
  <defs>
    <clipPath id="clip0_10_758">
      <rect width="309" height="49" fill="white" />
    </clipPath>
  </defs>
</svg>